# Blender v2.91.0 OBJ File: ''
# www.blender.org
mtllib sign.mtl
o Plane_Plane.001
v -1.683368 6.988572 0.186064
v 1.961731 6.988572 0.186064
v 1.961731 6.988572 0.276585
v -1.683368 6.988572 0.276585
v -1.740672 7.003067 0.186064
v -1.789252 7.044346 0.186064
v -1.821711 7.106124 0.186064
v -1.833110 7.178996 0.186064
v -1.833110 11.814409 0.186065
v -1.821711 11.887281 0.186065
v -1.789252 11.949060 0.186065
v -1.740672 11.990339 0.186065
v -1.683368 12.004833 0.186065
v 1.961731 12.004833 0.186065
v 2.019034 11.990339 0.186065
v 2.067614 11.949060 0.186065
v 2.100074 11.887281 0.186065
v 2.111472 11.814409 0.186065
v 2.108337 7.183664 0.181408
v 2.096939 7.110792 0.181408
v 2.067614 7.044346 0.186064
v 2.019034 7.003067 0.186064
v -1.833110 7.178996 0.276585
v -1.821711 7.106124 0.276585
v -1.789252 7.044346 0.276585
v -1.740672 7.003067 0.276585
v 2.019034 7.003067 0.276585
v 2.067614 7.044346 0.276585
v 2.096939 7.110792 0.271929
v 2.108337 7.183664 0.271929
v 2.111472 11.814409 0.276587
v 2.100074 11.887281 0.276587
v 2.067614 11.949060 0.276587
v 2.019034 11.990339 0.276587
v 1.961731 12.004833 0.276587
v -1.683368 12.004833 0.276587
v -1.740672 11.990339 0.276587
v -1.789252 11.949060 0.276587
v -1.821711 11.887281 0.276587
v -1.833110 11.814409 0.276587
v -0.122753 -0.230438 0.182288
v -0.122753 10.757537 0.182290
v -0.122753 10.757537 -0.182288
v -0.122753 -0.230438 -0.182290
v 0.241825 10.757537 -0.182288
v 0.241825 -0.230438 -0.182290
v 0.241825 10.757537 0.182290
v 0.241825 -0.230438 0.182288
vt 0.959305 0.221081
vt 0.946853 0.021947
vt 0.959305 0.021947
vt 0.583296 0.223477
vt 0.562699 0.231658
vt 0.040695 0.223477
vt 0.562699 0.263982
vt 0.583296 0.471297
vt 0.562699 0.479477
vt 0.665327 0.021675
vt 0.677138 0.219611
vt 0.664687 0.219611
vt 0.771621 0.221081
vt 0.759169 0.021947
vt 0.771621 0.021947
vt 0.959305 0.018816
vt 0.946853 0.018816
vt 0.959305 0.016162
vt 0.853011 0.226866
vt 0.865463 0.224212
vt 0.865463 0.226866
vt 0.853011 0.224212
vt 0.865463 0.221081
vt 0.759169 0.224212
vt 0.759169 0.221081
vt 0.771621 0.224212
vt 0.759169 0.226866
vt 0.865463 0.016162
vt 0.853011 0.018816
vt 0.853011 0.016162
vt 0.865463 0.018816
vt 0.853011 0.021947
vt 0.677779 0.018624
vt 0.677779 0.021675
vt 0.665327 0.018624
vt 0.677779 0.016162
vt 0.771621 0.016162
vt 0.759169 0.018816
vt 0.759169 0.016162
vt 0.771621 0.018816
vt 0.664687 0.222788
vt 0.677138 0.222788
vt 0.665327 0.225790
vt 0.946853 0.226866
vt 0.959305 0.224212
vt 0.959305 0.226866
vt 0.946853 0.224212
vt 0.865463 0.021947
vt 0.282883 0.511801
vt 0.333033 0.983838
vt 0.282883 0.983838
vt 0.385471 0.983838
vt 0.335321 0.511801
vt 0.385471 0.511802
vt 0.435316 0.511801
vt 0.485466 0.981428
vt 0.435316 0.981428
vt 0.434980 0.982861
vt 0.384830 0.510825
vt 0.434980 0.510825
vt 0.809319 0.331348
vt 0.759169 0.311431
vt 0.809319 0.311431
vt 0.809319 0.259190
vt 0.759169 0.279107
vt 0.759169 0.259190
vt 0.946853 0.221081
vt 0.061293 0.016162
vt 0.562699 0.016162
vt 0.041126 0.024543
vt 0.570581 0.016785
vt 0.577263 0.018558
vt 0.581729 0.021212
vt 0.583296 0.024343
vt 0.581729 0.226608
vt 0.577264 0.229262
vt 0.570581 0.231035
vt 0.061293 0.231658
vt 0.053410 0.231035
vt 0.046728 0.229262
vt 0.042263 0.226608
vt 0.042694 0.021413
vt 0.046728 0.018558
vt 0.053410 0.016785
vt 0.061293 0.479477
vt 0.061798 0.264153
vt 0.053411 0.478855
vt 0.040695 0.471297
vt 0.040695 0.272162
vt 0.053915 0.264776
vt 0.046728 0.477081
vt 0.042263 0.474427
vt 0.042263 0.269032
vt 0.046728 0.266378
vt 0.570581 0.264605
vt 0.583296 0.272162
vt 0.577263 0.266378
vt 0.581729 0.269032
vt 0.581729 0.474427
vt 0.577264 0.477081
vt 0.570581 0.478854
vt 0.946853 0.016162
vt 0.853011 0.221081
vt 0.771621 0.226866
vt 0.665327 0.016162
vt 0.677779 0.225790
vt 0.333032 0.511801
vt 0.335322 0.983838
vt 0.485466 0.511801
vt 0.384830 0.982861
vt 0.759169 0.331348
vt 0.809319 0.279107
vn 0.0000 -1.0000 0.0000
vn -0.0003 0.0003 -1.0000
vn -0.0000 0.0000 -1.0000
vn 0.0000 0.0005 -1.0000
vn 0.0000 -0.0005 1.0000
vn -0.0000 -0.0000 1.0000
vn 0.0003 -0.0003 1.0000
vn 1.0000 -0.0007 0.0000
vn 0.0000 1.0000 0.0000
vn -0.2452 -0.9695 0.0000
vn -0.6475 -0.7621 0.0000
vn -0.6475 -0.7620 0.0000
vn -0.8852 -0.4651 0.0000
vn -0.8853 -0.4651 0.0000
vn -0.9880 -0.1545 0.0000
vn -0.9880 -0.1546 0.0000
vn -0.2452 0.9695 0.0000
vn -0.6475 0.7621 0.0000
vn -0.6475 0.7620 0.0000
vn -0.8853 0.4651 0.0000
vn -0.9880 0.1545 0.0000
vn 0.9880 0.1545 0.0000
vn 0.8852 0.4651 0.0000
vn 0.6475 0.7621 0.0000
vn 0.6475 0.7620 0.0000
vn 0.2452 0.9695 0.0000
vn 0.9880 -0.1545 0.0000
vn 0.9149 -0.4038 0.0000
vn 0.6475 -0.7621 0.0000
vn 0.6475 -0.7620 0.0000
vn 0.2452 -0.9695 0.0000
vn -1.0000 0.0000 0.0000
vn 1.0000 0.0000 0.0000
vn 0.0015 -0.0257 -0.9997
vn -0.0009 -0.0011 -1.0000
vn -0.0069 -0.0057 -1.0000
vn -0.0010 -0.0003 -1.0000
vn -0.0272 -0.0079 -0.9996
vn 0.0439 -0.0834 -0.9955
vn 0.0010 0.0003 1.0000
vn 0.0069 0.0057 1.0000
vn 0.0009 0.0011 1.0000
vn -0.0015 0.0257 0.9997
vn 0.0272 0.0079 0.9996
vn -0.0439 0.0834 0.9955
vn -0.8852 0.4651 0.0000
usemtl Material.001
s 1
f 2/1/1 4/2/1 1/3/1
f 9/4/2 13/5/3 18/6/4
f 31/7/5 36/8/6 40/9/7
f 18/10/8 30/11/8 19/12/8
f 13/13/9 35/14/9 14/15/9
f 4/2/10 5/16/10 1/3/10
f 26/17/11 6/18/12 5/16/12
f 25/19/13 7/20/13 6/21/14
f 24/22/15 8/23/15 7/20/16
f 13/13/17 37/24/17 36/25/17
f 12/26/18 38/27/19 37/24/19
f 11/28/20 39/29/20 38/30/20
f 10/31/21 40/32/21 39/29/21
f 18/10/22 32/33/22 31/34/22
f 17/35/23 33/36/23 32/33/23
f 16/37/24 34/38/25 33/39/25
f 15/40/26 35/14/26 34/38/26
f 30/11/27 20/41/27 19/12/27
f 29/42/28 21/43/28 20/41/28
f 28/44/29 22/45/30 21/46/30
f 27/47/31 2/1/31 22/45/31
f 8/23/32 40/32/32 9/48/32
f 42/49/32 44/50/32 41/51/32
f 43/52/3 46/53/3 44/54/3
f 45/55/33 48/56/33 46/57/33
f 47/58/6 41/59/6 48/60/6
f 46/61/1 41/62/1 44/63/1
f 43/64/9 47/65/9 45/66/9
f 2/1/1 3/67/1 4/2/1
f 2/68/34 1/69/35 19/70/36
f 1/69/35 5/71/3 6/72/3
f 7/73/3 1/69/35 6/72/3
f 7/73/3 8/74/37 1/69/35
f 8/74/37 9/4/2 19/70/36
f 9/4/2 10/75/3 13/5/3
f 10/75/3 11/76/3 13/5/3
f 11/76/3 12/77/3 13/5/3
f 13/5/3 14/78/3 18/6/4
f 14/78/3 15/79/3 16/80/3
f 18/6/4 14/78/3 17/81/3
f 16/80/3 17/81/3 14/78/3
f 18/6/4 19/70/36 9/4/2
f 19/70/36 20/82/38 2/68/34
f 20/82/38 21/83/39 2/68/34
f 21/83/39 22/84/3 2/68/34
f 19/70/36 1/69/35 8/74/37
f 40/9/7 23/85/40 30/86/41
f 23/85/40 24/87/6 4/88/42
f 30/86/41 3/89/43 29/90/44
f 24/87/6 25/91/6 4/88/42
f 25/91/6 26/92/6 4/88/42
f 4/88/42 3/89/43 30/86/41
f 23/85/40 4/88/42 30/86/41
f 3/89/43 27/93/6 28/94/45
f 28/94/45 29/90/44 3/89/43
f 30/86/41 31/7/5 40/9/7
f 31/7/5 32/95/6 35/96/6
f 36/8/6 31/7/5 35/96/6
f 32/95/6 33/97/6 35/96/6
f 33/97/6 34/98/6 35/96/6
f 36/8/6 37/99/6 38/100/6
f 38/100/6 39/101/6 36/8/6
f 39/101/6 40/9/7 36/8/6
f 18/10/8 31/34/8 30/11/8
f 13/13/9 36/25/9 35/14/9
f 4/2/10 26/17/10 5/16/10
f 26/17/11 25/102/11 6/18/12
f 25/19/13 24/22/13 7/20/13
f 24/22/15 23/103/15 8/23/15
f 13/13/17 12/26/17 37/24/17
f 12/26/18 11/104/18 38/27/19
f 11/28/20 10/31/46 39/29/20
f 10/31/21 9/48/21 40/32/21
f 18/10/22 17/35/22 32/33/22
f 17/35/23 16/105/23 33/36/23
f 16/37/24 15/40/24 34/38/25
f 15/40/26 14/15/26 35/14/26
f 30/11/27 29/42/27 20/41/27
f 29/42/28 28/106/28 21/43/28
f 28/44/29 27/47/29 22/45/30
f 27/47/31 3/67/31 2/1/31
f 8/23/32 23/103/32 40/32/32
f 42/49/32 43/107/32 44/50/32
f 43/52/3 45/108/3 46/53/3
f 45/55/33 47/109/33 48/56/33
f 47/58/6 42/110/6 41/59/6
f 46/61/1 48/111/1 41/62/1
f 43/64/9 42/112/9 47/65/9
